<svg width="135" height="135" viewBox="0 0 135 135" fill="none" xmlns="http://www.w3.org/2000/svg">
<g filter="url(#filter0_d_23072_452)">
<rect x="29" y="25" width="75" height="75" rx="10" fill="url(#paint0_linear_23072_452)"/>
</g>
<g clip-path="url(#clip0_23072_452)">
<path d="M82.9516 66.3354L79.7345 63.8198C79.7753 63.4319 79.8103 62.9784 79.8103 62.4986C79.8103 62.0188 79.7768 61.5653 79.7345 61.1773L82.9545 58.6603C83.5525 58.1878 83.7158 57.3492 83.3351 56.6507L79.9897 50.8625C79.6324 50.2092 78.8493 49.8737 78.0545 50.1669L74.2584 51.6908C73.5308 51.1658 72.768 50.7225 71.9791 50.3681L71.4016 46.3417C71.3068 45.5775 70.6418 45 69.8558 45H63.1475C62.3614 45 61.6979 45.5775 61.6045 46.33L61.0256 50.3711C60.2614 50.7153 59.5104 51.1528 58.7506 51.6937L54.9443 50.1654C54.2311 49.8898 53.378 50.1989 53.0236 50.8494L49.6739 56.6448C49.2787 57.3128 49.442 58.1804 50.0531 58.6646L53.2701 61.1803C53.2191 61.6717 53.1943 62.099 53.1943 62.5001C53.1943 62.9011 53.2191 63.3284 53.2701 63.8213L50.0501 66.3384C49.4522 66.8123 49.2903 67.6509 49.6709 68.3479L53.0164 74.1361C53.3737 74.7879 54.1495 75.1262 54.9516 74.8317L58.7476 73.3078C59.4739 73.8313 60.2366 74.2746 61.0256 74.6304L61.6031 78.6554C61.6978 79.4225 62.3614 80 63.1489 80H69.8572C70.6433 80 71.3083 79.4225 71.4016 78.67L71.9805 74.6304C72.7447 74.2848 73.4943 73.8487 74.2555 73.3062L78.0618 74.8346C78.2455 74.906 78.4366 74.9425 78.6334 74.9425C79.1993 74.9425 79.7199 74.6333 79.9824 74.1521L83.3424 68.3333C83.7158 67.6508 83.5524 66.8123 82.9516 66.3354ZM66.5016 68.3333C63.2845 68.3333 60.6683 65.7171 60.6683 62.5C60.6683 59.2829 63.2845 56.6667 66.5016 56.6667C69.7186 56.6667 72.3349 59.2829 72.3349 62.5C72.3349 65.7171 69.7186 68.3333 66.5016 68.3333Z" fill="white"/>
</g>
<defs>
<filter id="filter0_d_23072_452" x="0" y="0" width="135" height="135" filterUnits="userSpaceOnUse" color-interpolation-filters="sRGB">
<feFlood flood-opacity="0" result="BackgroundImageFix"/>
<feColorMatrix in="SourceAlpha" type="matrix" values="0 0 0 0 0 0 0 0 0 0 0 0 0 0 0 0 0 0 127 0" result="hardAlpha"/>
<feOffset dx="1" dy="5"/>
<feGaussianBlur stdDeviation="15"/>
<feComposite in2="hardAlpha" operator="out"/>
<feColorMatrix type="matrix" values="0 0 0 0 0.841667 0 0 0 0 0.0806597 0 0 0 0 0.0806597 0 0 0 0.5 0"/>
<feBlend mode="normal" in2="BackgroundImageFix" result="effect1_dropShadow_23072_452"/>
<feBlend mode="normal" in="SourceGraphic" in2="effect1_dropShadow_23072_452" result="shape"/>
</filter>
<linearGradient id="paint0_linear_23072_452" x1="32" y1="27.5" x2="89.5" y2="100" gradientUnits="userSpaceOnUse">
<stop stop-color="#FF9A9A"/>
<stop offset="1" stop-color="#F14C4C"/>
</linearGradient>
<clipPath id="clip0_23072_452">
<rect width="35" height="35" fill="white" transform="translate(49 45)"/>
</clipPath>
</defs>
</svg>
