<svg width="135" height="135" viewBox="0 0 135 135" fill="none" xmlns="http://www.w3.org/2000/svg">
<g filter="url(#filter0_d_23073_456)">
<rect x="29" y="25" width="75" height="75" rx="10" fill="url(#paint0_linear_23073_456)" style="mix-blend-mode:luminosity" shape-rendering="crispEdges"/>
</g>
<g clip-path="url(#clip0_23073_456)">
<path d="M66.2485 61.8596C68.5647 61.8596 70.5703 61.0289 72.2091 59.3899C73.8478 57.7511 74.6786 55.746 74.6786 53.4295C74.6786 51.1139 73.8478 49.1085 72.2088 47.4692C70.5698 45.8307 68.5644 45 66.2485 45C63.932 45 61.9269 45.8307 60.2881 47.4695C58.6494 49.1082 57.8184 51.1136 57.8184 53.4295C57.8184 55.746 58.6494 57.7514 60.2884 59.3901C61.9274 61.0286 63.9328 61.8596 66.2485 61.8596Z" fill="white"/>
<path d="M81.001 71.9134C80.9537 71.2314 80.8581 70.4874 80.7174 69.7018C80.5754 68.9104 80.3924 68.1622 80.1735 67.4783C79.9473 66.7715 79.6397 66.0735 79.2594 65.4046C78.8648 64.7103 78.4012 64.1057 77.881 63.6083C77.3371 63.0878 76.6711 62.6694 75.901 62.3642C75.1336 62.0606 74.2831 61.9068 73.3733 61.9068C73.016 61.9068 72.6705 62.0534 72.0032 62.4878C71.5925 62.7556 71.1121 63.0654 70.5759 63.408C70.1174 63.7001 69.4963 63.9738 68.7292 64.2216C67.9807 64.4638 67.2207 64.5867 66.4706 64.5867C65.7205 64.5867 64.9608 64.4638 64.2116 64.2216C63.4452 63.9741 62.8241 63.7004 62.3661 63.4083C61.835 63.0689 61.3544 62.7591 60.9375 62.4875C60.271 62.0531 59.9252 61.9065 59.5679 61.9065C58.6579 61.9065 57.8077 62.0606 57.0405 62.3644C56.2709 62.6691 55.6047 63.0876 55.0602 63.6085C54.5403 64.1063 54.0765 64.7106 53.6824 65.4046C53.3024 66.0735 52.9948 66.7712 52.7683 67.4786C52.5496 68.1624 52.3667 68.9104 52.2246 69.7018C52.0839 70.4864 51.9883 71.2306 51.9411 71.9142C51.8946 72.5839 51.8711 73.2789 51.8711 73.981C51.8711 75.808 52.4519 77.287 53.5972 78.3778C54.7283 79.4542 56.225 80.0003 58.0451 80.0003H74.8978C76.7179 80.0003 78.214 79.4545 79.3454 78.3778C80.491 77.2878 81.0718 75.8085 81.0718 73.9807C81.0715 73.2755 81.0477 72.5799 81.001 71.9134Z" fill="white"/>
</g>
<defs>
<filter id="filter0_d_23073_456" x="0" y="0" width="135" height="135" filterUnits="userSpaceOnUse" color-interpolation-filters="sRGB">
<feFlood flood-opacity="0" result="BackgroundImageFix"/>
<feColorMatrix in="SourceAlpha" type="matrix" values="0 0 0 0 0 0 0 0 0 0 0 0 0 0 0 0 0 0 127 0" result="hardAlpha"/>
<feOffset dx="1" dy="5"/>
<feGaussianBlur stdDeviation="15"/>
<feComposite in2="hardAlpha" operator="out"/>
<feColorMatrix type="matrix" values="0 0 0 0 0.32549 0 0 0 0 0.843137 0 0 0 0 0.670588 0 0 0 0.5 0"/>
<feBlend mode="normal" in2="BackgroundImageFix" result="effect1_dropShadow_23073_456"/>
<feBlend mode="normal" in="SourceGraphic" in2="effect1_dropShadow_23073_456" result="shape"/>
</filter>
<linearGradient id="paint0_linear_23073_456" x1="32" y1="28.5" x2="66.5" y2="100" gradientUnits="userSpaceOnUse">
<stop stop-color="#85FED6"/>
<stop offset="1" stop-color="#4EDAAC"/>
</linearGradient>
<clipPath id="clip0_23073_456">
<rect width="35" height="35" fill="white" transform="translate(49 45)"/>
</clipPath>
</defs>
</svg>
